<?xml version="1.0" standalone="no"?>
<!DOCTYPE svg PUBLIC "-//W3C//DTD SVG 20010904//EN"
 "http://www.w3.org/TR/2001/REC-SVG-20010904/DTD/svg10.dtd">
<svg version="1.0" xmlns="http://www.w3.org/2000/svg"
 width="340.000000pt" height="340.000000pt" viewBox="0 0 340.000000 340.000000"
 preserveAspectRatio="xMidYMid meet">
<metadata>
Created by potrace 1.11, written by Peter Selinger 2001-2013
</metadata>
<g transform="translate(0.000000,340.000000) scale(0.100000,-0.100000)"
fill="#000000" stroke="none">
<path d="M1475 2784 c-342 -50 -571 -178 -755 -426 -82 -109 -148 -252 -189
-408 -41 -155 -46 -228 -46 -675 0 -395 1 -433 18 -463 25 -46 72 -72 129 -72
39 0 54 6 83 31 20 18 41 41 47 53 9 15 13 148 15 456 2 465 7 517 54 660 71
217 186 364 360 458 176 96 423 132 664 97 186 -27 289 -66 419 -159 122 -87
204 -201 277 -383 13 -32 23 -74 44 -183 11 -58 15 -172 15 -495 1 -374 3
-424 18 -455 39 -78 142 -105 209 -54 64 49 63 38 63 518 0 264 -4 455 -11
488 -5 29 -15 76 -20 103 -71 360 -294 659 -599 802 -220 103 -534 146 -795
107z"/>
<path d="M1550 2225 c-110 -21 -184 -53 -268 -118 -53 -40 -152 -161 -152
-185 0 -7 -7 -23 -15 -36 -18 -28 -31 -67 -51 -156 -21 -97 -21 -868 1 -910
55 -106 205 -106 257 0 15 31 17 79 18 436 0 379 1 404 21 464 43 132 119 198
253 221 130 22 284 -22 344 -99 87 -111 92 -143 92 -601 0 -429 0 -427 64
-476 63 -48 162 -25 206 47 19 31 20 51 20 433 0 441 -4 485 -62 622 -83 201
-235 318 -463 359 -95 17 -176 16 -265 -1z"/>
<path d="M3380 55 c-10 -12 -10 -15 4 -15 9 0 16 7 16 15 0 8 -2 15 -4 15 -2
0 -9 -7 -16 -15z"/>
<path d="M0 50 c0 -5 5 -10 11 -10 5 0 7 5 4 10 -3 6 -8 10 -11 10 -2 0 -4 -4
-4 -10z"/>
</g>
</svg>
